<svg id="svg" xmlns="http://www.w3.org/2000/svg" xmlns:xlink="http://www.w3.org/1999/xlink" width="400" height="426.0869565217391" viewBox="0, 0, 400,426.0869565217391"><g id="svgg"><path id="path0" d="M189.217 145.391 L 189.217 242.783 120.696 242.783 L 52.174 242.783 52.174 253.565 L 52.174 264.348 200.000 264.348 L 347.826 264.348 347.826 253.565 L 347.826 242.783 279.304 242.783 L 210.783 242.783 210.783 145.391 L 210.783 48.000 200.000 48.000 L 189.217 48.000 189.217 145.391 M93.565 310.609 L 93.565 321.391 197.913 321.391 L 302.261 321.391 302.261 310.609 L 302.261 299.826 197.913 299.826 L 93.565 299.826 93.565 310.609 M138.087 367.652 L 138.087 378.435 198.957 378.435 L 259.826 378.435 259.826 367.652 L 259.826 356.870 198.957 356.870 L 138.087 356.870 138.087 367.652 " stroke="none" fill="#000000" fill-rule="evenodd"></path></g></svg>