<?xml version="1.0" encoding="UTF-8" standalone="no"?>
<!-- Created with Inkscape (http://www.inkscape.org/) -->

<svg
   width="1580.0597mm"
   height="378.91904mm"
   viewBox="0 0 1580.0597 378.91903"
   version="1.1"
   id="svg1"
   xml:space="preserve"
   xmlns="http://www.w3.org/2000/svg"
   xmlns:svg="http://www.w3.org/2000/svg"><defs
     id="defs1" /><g
     id="layer1"
     transform="matrix(1,0,0,1.4065459,-52.17067,-281.29615)"><path
       d="m 632.41916,403.00588 c 0,0 0.0663,-35.71874 -2.75806,-50.69588 -4.13702,-21.93781 -7.34642,-31.63769 -14.7376,-48.93969 -14.06996,-22.67358 -24.30206,-39.23909 -45.31588,-57.39612 0,0 -21.30032,-18.77352 -56.88297,-20.05643 -24.48287,-0.88272 -46.52422,8.54929 -64.5067,24.79199 -7.73038,6.98247 -14.76381,14.27449 -26.24418,31.75351 -11.48038,17.47902 -18.58656,33.52681 -21.40274,49.92174 -2.81618,16.39493 -4.12167,38.49348 -4.12167,38.49348 -0.29653,5.0411 -5.4099,7.81166 -5.4099,7.81166 l -263.08973,-0.62795 c 0.78857,-6.17718 4.10798,-18.31891 4.10798,-18.31891 l 243.83639,0.12006 c 0,0 1.62128,-12.50123 4.15257,-29.17566 2.21765,-14.60842 12.45721,-38.60365 19.88913,-50.84619 7.43191,-12.24253 15.18248,-23.5291 35.5151,-42.46077 20.33263,-18.93167 45.5902,-29.13534 77.16792,-29.49462 31.57772,-0.35928 44.30548,7.82883 57.05648,15.39048 12.75101,7.56164 41.16111,37.03517 41.16111,37.03517 l 13.27963,20.52153 c 19.57131,24.31586 26.68823,69.38952 26.68823,69.38952 6.8203,65.83076 -1.18606,90.14629 -1.18606,90.14629 -9.01078,20.27426 -23.34637,28.63517 -37.26144,28.51858 -13.88804,-0.11638 -29.89235,-13.12197 -34.39615,-23.25552 -4.5038,-10.13354 -9.79729,-39.23437 -8.61695,-59.11141 2.27435,-38.30017 4.27571,-58.40555 29.96655,-111.13363 l 9.12709,-12.21642 c 0,0 25.10285,-28.34853 48.54763,-43.03936 23.44478,-14.69082 39.79603,-19.2367 69.21803,-18.95507 29.42199,0.28163 58.84963,9.90537 78.97419,26.10457 20.12455,16.1992 29.3713,26.31782 48.2236,53.18776 18.85231,26.86995 27.15245,64.71689 27.86965,87.31916 0.7172,22.60228 -18.13948,19.44589 -18.13948,19.44589 0,0 -4.58571,-31.21417 -7.44678,-47.83358 -2.86106,-16.6194 -13.25753,-37.93045 -25.43752,-56.78367 -6.91227,-10.69941 -10.0123,-16.00829 -16.00012,-22.42711 -4.40229,-4.71916 -10.25532,-10.36878 -20.89183,-17.52172 -25.10392,-16.88212 -40.82234,-21.85426 -66.41481,-22.53418 -25.59247,-0.67992 -50.87755,11.11025 -64.68385,20.47472 -13.80631,9.36449 -36.68383,32.13135 -42.7646,47.01876 l -8.80309,15.32406 c -7.39118,17.302 -11.4748,25.03489 -15.61182,46.97269 -2.82438,14.97714 -5.63751,23.25006 -4.0694,51.5701 1.56812,28.32004 3.03262,47.75858 21.44139,47.68354 18.40876,-0.075 20.60786,-30.45364 19.97066,-46.17137 z"
       style="display:inline;opacity:1;stroke-width:0.29028"
       id="path4" /><path
       d="m 861.14612,405.57294 c -0.17034,-4.20177 2.16153,-45.01896 -7.76774,-76.99484 l -3.88634,-14.21403 15.21244,-1.01336 11.90684,21.40752 c 10.97179,47.44559 3.24833,104.34467 -1.25706,114.4818 -4.50538,10.13713 -19.46587,19.95902 -33.38093,19.84243 -13.88804,-0.11639 -26.07699,-4.27477 -33.3978,-18.85578 -7.32081,-14.58102 -12.45439,-32.91505 -5.63409,-98.74581 2.51671,-23.34409 13.29764,-55.47866 30.62489,-81.25773 14.16019,-21.06718 31.10906,-36.60837 49.47674,-48.11782 23.44479,-14.69084 43.65099,-21.01591 73.07299,-20.73428 29.42199,0.28164 58.84964,9.90537 78.97424,26.10457 9.6825,7.79391 16.4351,14.52344 22.9354,22.40131 5.1138,6.1975 11.2576,11.32645 17.3629,20.02257 18.8253,26.81426 34.3294,65.05261 34.9053,114.39247 l -20.8083,5.21221 c 0.5931,-22.24013 -2.8065,-34.72497 -5.371,-47.24051 -1.2941,-6.31541 -5.348,-17.9133 -9.2463,-29.28107 -3.9007,-11.37507 -11.64,-21.72124 -17.6739,-31.06102 -6.5835,-10.19052 -10.3651,-14.94753 -16.0537,-20.76004 -4.6752,-4.77708 -10.4459,-10.55579 -21.7705,-18.17148 -25.10387,-16.88211 -41.3728,-19.90622 -66.96526,-20.58614 -25.59248,-0.67992 -47.61566,9.0345 -61.42196,18.39898 -13.80631,9.36448 -30.23511,25.93444 -36.24084,34.56429 -21.22032,30.49218 -26.2172,49.34423 -31.54713,77.60782 -2.82438,14.97714 -1.92207,34.38207 -1.86846,51.28895 0.0536,16.90688 2.32974,44.88659 20.73851,44.81155 18.40876,-0.075 19.39966,-35.64369 19.08106,-43.50256 z"
       style="display:inline;opacity:1;stroke-width:0.29028"
       id="path5" /><path
       d="m 1047.7835,401.45707 c -0.1863,-11.50539 0.1673,-30.16266 3.6477,-48.62013 3.4805,-18.45748 7.9396,-33.12037 15.3308,-50.42237 l 15.7226,-22.87261 c 0,0 -3.9985,-4.59574 33.9579,-36.32497 0,0 23.5637,-17.01189 50.845,-15.23268 0,0 17.7649,-1.01276 36.6842,7.02258 15.9572,6.77733 33.8698,19.70084 50.0576,39.94396 14.018,17.52973 25.5567,39.59479 31.2788,72.8336 l 1.1861,20.46084 c 0.2966,5.04109 4.1519,9.48912 4.1519,9.48912 l 264.2679,-0.003 -1.8348,-18.38131 -246.7805,0.0655 c 0,0 -1.1747,-16.01289 -4.4211,-30.85043 -3.128,-14.29623 -8.3066,-27.37386 -9.5971,-30.59945 -8.7065,-21.76337 -21.392,-38.05876 -33.1265,-50.67158 -40.2567,-43.26996 -90.0873,-40.36293 -90.0873,-40.36293 -34.1015,2.37227 -57.0565,15.39047 -57.0565,15.39047 -25.5021,15.12329 -32.5284,26.91461 -41.1611,37.03517 -8.6327,10.12056 -18.0242,23.78346 -25.4375,39.49977 -3.9868,8.45177 -5.4188,12.57654 -7.7919,19.97712 -2.0398,6.36103 -5.1621,15.21968 -6.7384,30.43416 -3.4102,32.91538 -3.4319,76.5851 2.6686,93.40817 6.1004,16.82307 13.7333,20.69096 19.7059,23.36289 5.9726,2.67194 17.8538,3.20849 25.9299,0.92184 13.4576,-3.69501 19.5176,-11.5083 24.727,-23.81451 4.2072,-10.43008 9.9338,-65.83042 2.0755,-99.04233 -7.8581,-33.21192 -5.041,-21.6474 -24.6124,-45.96326 l -10.3787,3.85532 c 7.3912,17.302 10.6007,27.00189 14.7377,48.93969 2.8243,14.97714 4.5909,38.23704 3.3511,51.28895 -1.2397,13.05192 -1.4401,46.36927 -19.8489,46.29423 -18.4087,-0.075 -21.2671,-35.55559 -21.4535,-47.06098 z"
       style="display:inline;opacity:1;stroke-width:0.29028"
       id="path4-1" /><path
       style="opacity:1;fill:#000000;stroke-width:0.29028"
       d="m 1545.2311,366.80257 c 0,0 -0.2993,-11.02707 2.2376,-19.69249 2.4344,-8.31536 6.485,-12.37523 11.8112,-16.58247 5.3261,-4.20724 17.1929,-8.20181 28.307,-8.1776 11.1141,0.0242 22.5279,2.97637 30.6136,10.27444 8.0857,7.29806 12.1526,18.66584 12.3714,29.98449 0.2187,11.31865 -3.9712,24.91497 -12.1618,32.29099 -8.1905,7.37603 -19.7783,10.17657 -29.7748,10.27443 -9.9966,0.0979 -19.6922,-0.60839 -26.6296,-6.08078 -6.9376,-5.47239 -12.6424,-12.77461 -14.265,-17.38974 -2.5811,-7.34084 -2.5096,-14.90127 -2.5096,-14.90127 l 20.5489,-8.80663 c 0,0 -0.9528,12.32727 2.8258,17.12898 3.912,4.97124 7.8545,9.92207 19.8198,10.54903 11.9653,0.62696 21.6822,-7.17736 21.8069,-21.38757 0.1249,-14.21019 -3.1451,-22.41797 -23.9037,-22.64563 -20.7585,-0.22768 -21.1779,24.53278 -21.1779,24.53278 z"
       id="path7" /><path
       style="opacity:1;fill:#000000;stroke-width:0.29028"
       d="m 50.525636,366.29256 c -0.161156,-15.2952 3.345338,-24.42007 12.610084,-32.918 9.264735,-8.49793 18.631602,-11.55877 29.745681,-11.53456 11.114079,0.0242 22.527889,2.97637 30.613579,10.27444 8.08569,7.29806 12.15262,18.66584 12.37139,29.98449 0.21876,11.31865 -3.97115,24.91497 -12.16173,32.29099 -8.19057,7.37603 -14.84275,10.17874 -29.774828,10.27443 -14.93208,0.0957 -22.812552,-3.08115 -31.71911,-11.91099 -8.906546,-8.82984 -11.669936,-20.73243 -11.685066,-26.4608 l 20.548902,-8.80663 c 0,0 -0.952852,12.32727 2.825751,17.12898 3.912013,4.97124 7.854525,9.92207 19.819863,10.54903 11.965228,0.62696 21.682008,-7.17736 21.806858,-21.38756 0.0715,-8.13494 -3.01569,-12.86931 -7.20614,-16.21412 -4.19045,-3.34481 -9.097394,-5.38906 -16.697541,-5.47239 -7.600146,-0.0834 -10.68619,2.55186 -15.792597,7.74267 -5.106418,5.19081 -5.385285,15.83099 -5.385285,15.83099 z"
       id="path8" /></g></svg>
