<?xml version="1.0" encoding="UTF-8" standalone="no"?>
<!-- Created with Inkscape (http://www.inkscape.org/) -->

<svg
   width="297mm"
   height="210mm"
   viewBox="0 0 297 210"
   version="1.1"
   id="svg1"
   sodipodi:docname="rotSpring.svg"
   inkscape:version="1.3.2 (091e20e, 2023-11-25, custom)"
   xmlns:inkscape="http://www.inkscape.org/namespaces/inkscape"
   xmlns:sodipodi="http://sodipodi.sourceforge.net/DTD/sodipodi-0.dtd"
   xmlns="http://www.w3.org/2000/svg"
   xmlns:svg="http://www.w3.org/2000/svg">
  <sodipodi:namedview
     id="namedview1"
     pagecolor="#ffffff"
     bordercolor="#000000"
     borderopacity="0.25"
     inkscape:showpageshadow="2"
     inkscape:pageopacity="0.0"
     inkscape:pagecheckerboard="0"
     inkscape:deskcolor="#d1d1d1"
     inkscape:document-units="mm"
     inkscape:zoom="0.49932309"
     inkscape:cx="49.066427"
     inkscape:cy="455.61682"
     inkscape:window-width="2256"
     inkscape:window-height="1398"
     inkscape:window-x="-11"
     inkscape:window-y="-11"
     inkscape:window-maximized="1"
     inkscape:current-layer="svg1" />
  <defs
     id="defs1" />
  <g
     id="layer5" />
  <g
     id="g2"
     transform="matrix(1.2587267,0,0,1.2587267,-41.304305,-34.08789)">
    <path
       id="path14"
       style="color:#000000;fill:#000000;stroke-width:3.59205;-inkscape-stroke:none"
       d="m 134.79245,111.86414 c -10.89976,-0.008 -20.78737,2.33618 -28.24824,6.38903 -5.47939,2.9764 -9.927303,7.0715 -11.909636,12.15237 l 7.708606,11.68996 -5.448294,4.20118 c 2.337649,3.21956 5.718204,5.92195 9.630144,8.05357 7.45658,4.06312 17.34164,6.42856 28.24142,6.43607 10.89977,0.008 20.79433,-2.34416 28.25522,-6.39692 7.46087,-4.05277 13.01863,-10.16537 13.02281,-18.03657 0.005,-7.87124 -5.54709,-13.99743 -13.00367,-18.06051 -7.45655,-4.06318 -17.34858,-6.42066 -28.24837,-6.42822 z m -0.005,7.67599 c 10.03411,0.008 19.09656,2.27431 25.35462,5.68436 6.25806,3.41001 9.18044,7.60576 9.1786,11.12366 -0.002,3.51798 -2.92872,7.70969 -9.1904,11.11098 -6.26168,3.40138 -15.32656,5.65816 -25.36066,5.65121 -10.03409,-0.008 -19.09482,-2.27631 -25.3529,-5.68633 -6.25805,-3.40997 -9.18217,-7.60574 -9.18031,-11.12369 0.002,-3.51794 2.93045,-7.70961 9.19214,-11.11095 6.26164,-3.40137 15.32481,-5.65619 25.35891,-5.64924 z" />
    <ellipse
       style="fill:#7b7b7b;fill-opacity:0;stroke:#000000;stroke-width:7.18411;stroke-dasharray:none"
       id="path1-3-6"
       cx="134.76967"
       cy="118.1462"
       rx="37.90419"
       ry="20.621925" />
    <ellipse
       style="fill:#7b7b7b;fill-opacity:0;stroke:#000000;stroke-width:7.18411;stroke-dasharray:none"
       id="path1-3-6-0"
       cx="134.05927"
       cy="102.36749"
       rx="37.90419"
       ry="20.621925" />
    <ellipse
       style="fill:#7b7b7b;fill-opacity:0;stroke:#000000;stroke-width:7.18411;stroke-dasharray:none"
       id="path1-3-6-0-8"
       cx="133.49385"
       cy="84.4254"
       rx="37.90419"
       ry="20.621925" />
    <rect
       style="fill:#000000;fill-opacity:1;stroke:#000000;stroke-width:0;stroke-dasharray:none"
       id="rect10"
       width="122.8941"
       height="6.3902941"
       x="132.34697"
       y="101.79544" />
    <rect
       style="fill:#000000;fill-opacity:1;stroke:#000000;stroke-width:0;stroke-dasharray:none"
       id="rect15"
       width="93.769997"
       height="7.198163"
       x="81.572586"
       y="-9.9377317"
       transform="matrix(0.53909769,0.84224324,-0.86319474,0.50487112,0,0)"
       ry="0" />
  </g>
</svg>
