<?xml version="1.0" encoding="UTF-8" standalone="no"?>
<!-- Created with Inkscape (http://www.inkscape.org/) -->

<svg
   width="297mm"
   height="210mm"
   viewBox="0 0 297 210"
   version="1.1"
   id="svg1"
   sodipodi:docname="transSpring.svg"
   inkscape:version="1.3.2 (091e20e, 2023-11-25, custom)"
   xmlns:inkscape="http://www.inkscape.org/namespaces/inkscape"
   xmlns:sodipodi="http://sodipodi.sourceforge.net/DTD/sodipodi-0.dtd"
   xmlns="http://www.w3.org/2000/svg"
   xmlns:svg="http://www.w3.org/2000/svg">
  <sodipodi:namedview
     id="namedview1"
     pagecolor="#ffffff"
     bordercolor="#000000"
     borderopacity="0.25"
     inkscape:showpageshadow="2"
     inkscape:pageopacity="0.0"
     inkscape:pagecheckerboard="0"
     inkscape:deskcolor="#d1d1d1"
     inkscape:document-units="mm"
     inkscape:zoom="0.99864618"
     inkscape:cx="397.03752"
     inkscape:cy="339.96024"
     inkscape:window-width="2256"
     inkscape:window-height="1398"
     inkscape:window-x="-11"
     inkscape:window-y="-11"
     inkscape:window-maximized="1"
     inkscape:current-layer="svg1" />
  <defs
     id="defs1" />
  <g
     id="layer3" />
  <g
     id="layer2" />
  <g
     id="layer1" />
  <g
     id="layer4"
     transform="matrix(1.3444784,0,0,1.3444784,7.3297684,-94.655042)">
    <g
       id="g151">
      <g
         id="g155"
         transform="rotate(-1.7588331,71.645347,159.67925)">
        <path
           style="color:#000000;fill:#ffffff;fill-opacity:0;stroke-width:8.59397;-inkscape-stroke:none"
           d="m 65.893253,146.77641 a 28.19986,33.311294 0 0 1 -28.199858,33.3113 28.19986,33.311294 0 0 1 -28.1998589,-33.3113 28.19986,33.311294 0 0 1 28.1998589,-33.3113 28.19986,33.311294 0 0 1 28.199858,33.3113 z"
           id="path22" />
        <path
           id="path23"
           style="color:#000000;fill:#000000;stroke-width:8.59397;-inkscape-stroke:none"
           d="m 37.685117,109.82233 c -17.085628,0 -31.129749,16.49726 -31.129749,36.96358 0,20.46633 14.044121,36.94382 31.129749,36.94382 5.066233,0 9.863007,-1.45968 14.109654,-4.03183 l -1.443262,-7.23244 c -3.713732,2.52208 -8.034722,3.97238 -12.666392,3.97238 -14.06301,0 -25.25305,-13.32368 -25.25305,-29.65193 0,-16.32826 11.19004,-29.67179 25.25305,-29.67179 13.866095,0 24.949188,12.9739 25.257037,28.9891 l 3.197497,-2.29043 h 2.583512 C 67.439505,124.74589 53.934685,109.82233 37.685117,109.82233 Z" />
        <g
           id="g154"
           transform="translate(0.65481034,2.0579754)">
          <g
             id="path13-3"
             transform="matrix(-7.7151304,0,0,-9.5729227,468.81965,1149.6497)">
            <path
               style="color:#000000;fill:#ffffff;fill-opacity:0;-inkscape-stroke:none"
               d="m 42.086839,104.40214 a 3.6551371,3.4797413 0 0 1 -3.655137,3.47974 3.6551371,3.4797413 0 0 1 -3.655137,-3.47974 3.6551371,3.4797413 0 0 1 3.655137,-3.47974 3.6551371,3.4797413 0 0 1 3.655137,3.47974 z"
               id="path20" />
            <g
               id="g153">
              <path
                 id="path21"
                 style="color:#000000;fill:#000000;-inkscape-stroke:none"
                 d="m 38.431595,108.26154 c 0.656414,0 1.27776,-0.15215 1.827796,-0.42065 l -0.187069,-0.75447 c -0.48122,0.26353 -1.040645,0.41548 -1.640727,0.41548 -1.822784,0 -3.273185,-1.39388 -3.273185,-3.09956 0,-1.70567 1.450401,-3.09955 3.273185,-3.09955 1.797444,0 3.233567,1.35555 3.273185,3.02876 l 0.413929,-0.23875 h 0.333829 c -0.165797,-1.99214 -1.91446,-3.55172 -4.020943,-3.55172 -2.214562,0 -4.034896,1.72332 -4.034896,3.86126 0,2.13794 1.820334,3.8592 4.034896,3.8592 z" />
            </g>
          </g>
          <path
             style="fill:#000000;fill-opacity:1;stroke:#000000;stroke-width:2.23449e-08;stroke-dasharray:none;stroke-opacity:1"
             id="rect14-0"
             transform="matrix(-7.7151304,0,0,-9.5729227,451.21026,1090.3735)"
             d="m 39.40683,97.896477 h 0.765109 v 3.906223 a 0.38860677,0.38860677 135 0 1 -0.388607,0.38861 0.38447011,0.38447011 46.175415 0 1 -0.376502,-0.39228 z" />
        </g>
        <path
           style="fill:#000000;fill-opacity:1;stroke:#000000;stroke-width:2.23449e-08;stroke-dasharray:none;stroke-opacity:1"
           id="rect14-3-4"
           transform="matrix(7.7151304,0,0,16.818902,-231.83295,-1533.8133)"
           d="m 39.740474,97.896477 h 0.09516 a 0.33630738,0.33630738 45 0 1 0.336307,0.336307 v 3.680996 a 0.27752287,0.27752287 135 0 1 -0.277523,0.27753 h -0.159622 a 0.32796428,0.32796428 45 0 1 -0.327964,-0.32797 v -3.633219 a 0.3336442,0.3336442 135 0 1 0.333644,-0.333644 z" />
        <path
           style="fill:#000000;fill-opacity:1;stroke:#000000;stroke-width:2.23449e-08;stroke-dasharray:none;stroke-opacity:1"
           id="rect14"
           transform="matrix(7.7151304,0,0,9.5729227,-241.20281,-793.38098)"
           d="m 39.40683,97.896477 h 0.765109 v 3.906223 a 0.38860677,0.38860677 135 0 1 -0.388607,0.38861 0.38447011,0.38447011 46.175415 0 1 -0.376502,-0.39228 z" />
        <path
           style="fill:#000000;fill-opacity:1;stroke:#000000;stroke-width:2.23449e-08;stroke-dasharray:none;stroke-opacity:1"
           id="rect14-3-45"
           transform="matrix(7.7151304,0,0,16.818902,-221.40626,-1533.1605)"
           d="m 39.740474,97.896477 h 0.09516 a 0.33630738,0.33630738 45 0 1 0.336307,0.336307 v 3.680996 a 0.27752287,0.27752287 135 0 1 -0.277523,0.27753 h -0.159622 a 0.32796428,0.32796428 45 0 1 -0.327964,-0.32797 v -3.633219 a 0.3336442,0.3336442 135 0 1 0.333644,-0.333644 z" />
        <path
           style="fill:#000000;fill-opacity:1;stroke:#000000;stroke-width:2.23449e-08;stroke-dasharray:none;stroke-opacity:1"
           id="rect14-3-3-3"
           transform="matrix(-7.7151304,0,0,-16.818902,402.25806,1832.3179)"
           d="m 39.740474,97.896477 h 0.09516 a 0.33630738,0.33630738 45 0 1 0.336307,0.336307 v 3.680996 a 0.27752287,0.27752287 135 0 1 -0.277523,0.27753 h -0.159622 a 0.32796428,0.32796428 45 0 1 -0.327964,-0.32797 v -3.633219 a 0.3336442,0.3336442 135 0 1 0.333644,-0.333644 z" />
        <path
           style="fill:#000000;fill-opacity:1;stroke:#000000;stroke-width:2.23449e-08;stroke-dasharray:none;stroke-opacity:1"
           id="rect14-3-6"
           transform="matrix(7.7151304,0,0,16.818902,-201.61432,-1532.2547)"
           d="m 39.740474,97.896477 h 0.09516 a 0.33630738,0.33630738 45 0 1 0.336307,0.336307 v 3.680996 a 0.27752287,0.27752287 135 0 1 -0.277523,0.27753 h -0.159622 a 0.32796428,0.32796428 45 0 1 -0.327964,-0.32797 v -3.633219 a 0.3336442,0.3336442 135 0 1 0.333644,-0.333644 z" />
        <path
           style="fill:#000000;fill-opacity:1;stroke:#000000;stroke-width:2.23449e-08;stroke-dasharray:none;stroke-opacity:1"
           id="rect14-3-3-4"
           transform="matrix(-7.7151304,0,0,-16.818902,422.17758,1833.0797)"
           d="m 39.740474,97.896477 h 0.09516 a 0.33630738,0.33630738 45 0 1 0.336307,0.336307 v 3.680996 a 0.27752287,0.27752287 135 0 1 -0.277523,0.27753 h -0.159622 a 0.32796428,0.32796428 45 0 1 -0.327964,-0.32797 v -3.633219 a 0.3336442,0.3336442 135 0 1 0.333644,-0.333644 z" />
        <path
           style="fill:#000000;fill-opacity:1;stroke:#000000;stroke-width:2.23449e-08;stroke-dasharray:none;stroke-opacity:1"
           id="rect14-3-4-2-7"
           transform="matrix(7.7151304,0,0,16.818902,-181.15646,-1531.9699)"
           d="m 39.740474,97.896477 h 0.09516 a 0.33630738,0.33630738 45 0 1 0.336307,0.336307 v 3.680996 a 0.27752287,0.27752287 135 0 1 -0.277523,0.27753 h -0.159622 a 0.32796428,0.32796428 45 0 1 -0.327964,-0.32797 v -3.633219 a 0.3336442,0.3336442 135 0 1 0.333644,-0.333644 z" />
        <path
           style="fill:#000000;fill-opacity:1;stroke:#000000;stroke-width:2.23449e-08;stroke-dasharray:none;stroke-opacity:1"
           id="rect14-3-3-3-2"
           transform="matrix(-7.7151304,0,0,-16.818902,442.99651,1833.1204)"
           d="m 39.740474,97.896477 h 0.09516 a 0.33630738,0.33630738 45 0 1 0.336307,0.336307 v 3.680996 a 0.27752287,0.27752287 135 0 1 -0.277523,0.27753 h -0.159622 a 0.32796428,0.32796428 45 0 1 -0.327964,-0.32797 v -3.633219 a 0.3336442,0.3336442 135 0 1 0.333644,-0.333644 z" />
      </g>
    </g>
  </g>
</svg>
