<svg id="svg" version="1.1" xmlns="http://www.w3.org/2000/svg" xmlns:xlink="http://www.w3.org/1999/xlink" width="400" height="250.53763440860214" viewBox="0, 0, 400,255"><g id="svgg"><path id="path0" d="M4.762 2.256 C 4.762 2.393,4.416 2.506,3.992 2.506 C 3.100 2.506,2.506 3.000,2.506 3.741 C 2.506 4.027,2.393 4.261,2.256 4.261 C 1.766 4.261,1.925 245.763,2.415 247.046 L 2.824 248.118 136.375 248.120 C 225.406 248.121,269.925 248.038,269.925 247.870 C 269.925 247.732,270.042 247.619,270.184 247.619 C 270.327 247.619,270.694 247.397,270.999 247.125 C 272.549 245.746,275.733 242.741,277.714 240.789 C 278.938 239.583,280.052 238.596,280.190 238.596 C 280.328 238.596,281.571 237.476,282.953 236.106 C 284.335 234.737,285.832 233.357,286.279 233.040 C 287.555 232.135,290.247 229.310,290.084 229.047 C 290.004 228.916,290.031 228.826,290.144 228.846 C 290.258 228.865,290.468 228.868,290.611 228.852 C 290.912 228.817,293.233 226.671,293.233 226.426 C 293.233 226.162,295.587 224.066,295.887 224.063 C 296.036 224.061,296.600 223.556,297.140 222.939 C 297.679 222.323,298.208 221.815,298.315 221.811 C 298.422 221.808,299.005 221.325,299.611 220.739 C 300.217 220.154,301.247 219.223,301.899 218.672 C 302.552 218.120,304.702 216.062,306.679 214.098 C 308.656 212.133,310.415 210.524,310.588 210.521 C 310.761 210.518,311.241 210.107,311.654 209.608 C 312.817 208.204,314.971 206.267,315.369 206.266 C 315.609 206.266,316.291 205.621,316.291 205.395 C 316.291 205.199,317.472 204.010,317.666 204.010 C 317.746 204.010,318.181 203.643,318.634 203.195 C 319.086 202.747,319.943 201.958,320.538 201.441 C 321.133 200.924,321.539 200.501,321.441 200.501 C 321.343 200.501,321.732 200.050,322.306 199.499 C 322.880 198.947,323.455 198.496,323.585 198.496 C 323.714 198.496,324.692 197.622,325.757 196.554 C 326.823 195.486,328.033 194.359,328.446 194.051 C 329.304 193.411,332.844 190.119,336.099 186.935 C 337.315 185.745,338.685 184.508,339.143 184.186 C 340.133 183.489,340.602 183.053,340.602 182.828 C 340.602 182.569,343.397 179.950,343.674 179.950 C 343.810 179.950,344.648 179.217,345.535 178.321 C 346.422 177.425,347.206 176.692,347.276 176.692 C 347.428 176.692,347.573 176.561,349.798 174.435 C 350.736 173.538,351.814 172.581,352.193 172.308 C 352.572 172.035,352.882 171.717,352.882 171.602 C 352.882 171.351,353.528 170.677,353.768 170.677 C 353.862 170.677,354.520 170.056,355.231 169.298 C 355.943 168.540,356.606 167.920,356.706 167.920 C 357.029 167.920,359.431 165.685,360.929 163.990 C 361.437 163.414,362.365 162.657,362.561 162.657 C 362.704 162.657,363.887 161.533,368.698 156.830 C 369.932 155.623,371.070 154.637,371.227 154.637 C 371.385 154.637,372.398 153.734,373.479 152.632 C 374.559 151.529,375.536 150.627,375.648 150.627 C 375.761 150.627,377.479 149.047,379.468 147.117 C 384.626 142.111,385.165 141.604,385.339 141.604 C 385.425 141.604,386.449 140.645,387.615 139.474 C 388.782 138.302,389.837 137.343,389.959 137.343 C 390.176 137.343,392.530 135.146,397.390 130.406 C 399.605 128.246,400.445 126.817,399.499 126.817 C 399.361 126.817,399.248 126.648,399.248 126.441 C 399.248 126.234,399.144 126.065,399.017 126.065 C 398.809 126.065,395.453 122.950,393.231 120.693 C 392.747 120.201,392.212 119.799,392.040 119.799 C 391.869 119.799,391.729 119.682,391.729 119.538 C 391.729 119.395,391.504 119.035,391.228 118.739 C 390.952 118.443,390.727 118.301,390.727 118.424 C 390.727 118.547,389.881 117.781,388.847 116.724 C 387.813 115.666,386.967 114.859,386.967 114.929 C 386.967 115.121,386.439 114.647,383.671 111.967 C 382.283 110.623,381.038 109.524,380.905 109.524 C 380.772 109.524,379.831 108.678,378.814 107.644 C 377.797 106.610,376.894 105.764,376.809 105.764 C 376.664 105.764,375.742 104.824,374.179 103.086 C 373.830 102.698,373.052 101.986,372.450 101.504 C 370.278 99.766,368.961 98.541,369.108 98.395 C 369.189 98.313,369.121 98.246,368.956 98.246 C 368.790 98.246,368.271 97.879,367.801 97.431 C 367.331 96.983,366.427 96.165,365.791 95.614 C 365.156 95.063,362.989 93.004,360.975 91.040 C 358.961 89.076,357.218 87.469,357.100 87.469 C 356.983 87.469,356.070 86.623,355.072 85.589 C 354.075 84.555,353.121 83.709,352.953 83.709 C 352.784 83.709,351.577 82.638,350.270 81.328 C 348.962 80.019,347.775 78.947,347.631 78.947 C 347.486 78.947,347.368 78.863,347.368 78.759 C 347.368 78.441,344.684 75.689,344.373 75.689 C 344.212 75.689,344.150 75.576,344.236 75.439 C 344.321 75.301,344.266 75.188,344.114 75.188 C 343.749 75.188,343.426 74.912,341.101 72.619 C 340.018 71.551,339.007 70.677,338.854 70.677 C 338.702 70.677,337.523 69.605,336.235 68.296 C 334.946 66.986,333.831 65.915,333.757 65.915 C 333.591 65.915,331.421 63.964,330.859 63.310 C 329.824 62.106,328.890 61.249,328.258 60.923 C 327.879 60.727,327.569 60.491,327.569 60.399 C 327.569 60.140,325.393 57.895,325.143 57.895 C 325.022 57.895,324.760 57.669,324.561 57.393 C 324.363 57.118,323.999 56.892,323.754 56.892 C 323.509 56.892,323.308 56.775,323.308 56.631 C 323.308 56.378,320.632 53.634,320.386 53.634 C 320.176 53.634,319.549 52.928,319.549 52.692 C 319.549 52.567,319.245 52.306,318.873 52.110 C 318.501 51.914,317.444 51.021,316.523 50.125 C 315.122 48.761,313.449 47.206,310.256 44.298 C 309.991 44.057,309.715 43.860,309.643 43.860 C 309.450 43.860,307.268 41.647,307.268 41.452 C 307.268 41.175,305.912 40.101,305.562 40.101 C 305.381 40.100,305.303 39.987,305.388 39.850 C 305.474 39.712,305.419 39.599,305.268 39.599 C 305.116 39.599,304.179 38.817,303.185 37.862 C 297.992 32.870,297.141 32.080,296.948 32.080 C 296.833 32.080,295.377 30.727,293.714 29.073 C 292.050 27.419,290.585 26.065,290.458 26.065 C 290.330 26.065,289.224 25.078,288.000 23.872 C 283.227 19.171,280.377 16.541,280.054 16.541 C 279.878 16.541,279.198 15.870,279.198 15.696 C 279.198 15.432,276.806 13.295,276.504 13.289 C 276.331 13.286,276.190 13.170,276.190 13.033 C 276.190 12.895,276.021 12.782,275.815 12.782 C 275.608 12.782,275.439 12.667,275.439 12.526 C 275.439 12.260,272.803 9.524,272.547 9.524 C 272.466 9.524,271.558 8.678,270.527 7.644 C 269.497 6.610,268.538 5.764,268.397 5.764 C 268.256 5.764,268.221 5.634,268.320 5.475 C 268.429 5.298,268.389 5.254,268.216 5.360 C 268.060 5.456,267.733 5.293,267.488 4.998 C 266.428 3.719,265.695 3.008,265.438 3.008 C 265.287 3.008,265.163 2.895,265.163 2.757 C 265.163 2.619,264.831 2.506,264.426 2.506 C 264.020 2.506,263.619 2.393,263.534 2.256 C 263.319 1.908,4.762 1.908,4.762 2.256 M256.184 25.997 C 256.960 26.635,259.516 28.967,266.291 35.222 C 267.807 36.622,269.386 38.078,269.799 38.459 C 270.213 38.840,271.580 40.100,272.837 41.260 C 274.094 42.419,275.346 43.563,275.619 43.802 C 275.892 44.040,277.354 45.391,278.869 46.802 C 280.383 48.214,281.894 49.604,282.227 49.891 C 282.560 50.178,283.565 51.111,284.461 51.963 C 285.744 53.184,289.091 56.267,292.125 59.023 C 292.277 59.160,293.797 60.570,295.505 62.155 C 297.212 63.741,299.401 65.762,300.369 66.647 C 302.531 68.622,304.622 70.550,306.767 72.545 C 307.663 73.378,309.693 75.244,311.278 76.692 C 312.863 78.139,314.945 80.056,315.904 80.952 C 316.863 81.848,317.775 82.694,317.930 82.832 C 318.085 82.970,319.420 84.201,320.896 85.569 C 322.372 86.936,323.784 88.233,324.033 88.451 C 324.283 88.669,325.716 89.985,327.218 91.376 C 334.332 97.963,340.309 103.478,343.782 106.661 C 361.711 123.096,366.131 127.240,366.089 127.577 C 366.062 127.788,364.518 129.359,362.657 131.068 C 360.796 132.776,357.976 135.373,356.391 136.838 C 352.353 140.570,343.482 148.737,341.976 150.108 C 340.279 151.653,334.943 156.583,332.462 158.897 C 331.353 159.931,329.272 161.848,327.836 163.158 C 326.400 164.467,324.990 165.764,324.702 166.040 C 324.140 166.578,318.624 171.638,318.146 172.055 C 317.987 172.193,317.081 173.039,316.131 173.935 C 315.182 174.831,313.728 176.184,312.901 176.942 C 312.075 177.701,310.102 179.516,308.519 180.977 C 306.935 182.438,303.323 185.765,300.492 188.370 C 297.661 190.976,293.319 194.975,290.843 197.257 C 288.367 199.540,284.818 202.807,282.957 204.518 C 281.096 206.229,279.010 208.160,278.321 208.808 C 277.632 209.456,276.831 210.192,276.541 210.444 C 276.252 210.696,274.776 212.057,273.262 213.469 C 271.747 214.880,270.280 216.234,270.001 216.476 C 269.721 216.719,268.152 218.168,266.513 219.697 C 264.875 221.226,261.795 224.073,259.669 226.025 L 255.805 229.573 140.980 229.636 C 77.826 229.671,25.965 229.663,25.734 229.618 C 25.299 229.534,25.046 25.915,25.480 25.480 C 25.572 25.388,77.331 25.313,140.499 25.313 L 255.350 25.313 256.184 25.997 " stroke="none" fill="#acacac" fill-rule="evenodd"></path><path id="path1" d="M25.480 25.480 C 25.046 25.915,25.299 229.534,25.734 229.618 C 25.965 229.663,77.826 229.671,140.980 229.636 L 255.805 229.573 259.669 226.025 C 261.795 224.073,264.875 221.226,266.513 219.697 C 268.152 218.168,269.721 216.719,270.001 216.476 C 270.280 216.234,271.747 214.880,273.262 213.469 C 274.776 212.057,276.252 210.696,276.541 210.444 C 276.831 210.192,277.632 209.456,278.321 208.808 C 279.010 208.160,281.096 206.229,282.957 204.518 C 284.818 202.807,288.367 199.540,290.843 197.257 C 293.319 194.975,297.661 190.976,300.492 188.370 C 303.323 185.765,306.935 182.438,308.519 180.977 C 310.102 179.516,312.075 177.701,312.901 176.942 C 313.728 176.184,315.182 174.831,316.131 173.935 C 317.081 173.039,317.987 172.193,318.146 172.055 C 318.624 171.638,324.140 166.578,324.702 166.040 C 324.990 165.764,326.400 164.467,327.836 163.158 C 329.272 161.848,331.353 159.931,332.462 158.897 C 334.943 156.583,340.279 151.653,341.976 150.108 C 343.482 148.737,352.353 140.570,356.391 136.838 C 357.976 135.373,360.796 132.776,362.657 131.068 C 364.518 129.359,366.062 127.788,366.089 127.577 C 366.131 127.240,361.711 123.096,343.782 106.661 C 340.309 103.478,334.332 97.963,327.218 91.376 C 325.716 89.985,324.283 88.669,324.033 88.451 C 323.784 88.233,322.372 86.936,320.896 85.569 C 319.420 84.201,318.085 82.970,317.930 82.832 C 317.775 82.694,316.863 81.848,315.904 80.952 C 314.945 80.056,312.863 78.139,311.278 76.692 C 309.693 75.244,307.663 73.378,306.767 72.545 C 304.622 70.550,302.531 68.622,300.369 66.647 C 299.401 65.762,297.212 63.741,295.505 62.155 C 293.797 60.570,292.277 59.160,292.125 59.023 C 289.091 56.267,285.744 53.184,284.461 51.963 C 283.565 51.111,282.560 50.178,282.227 49.891 C 281.894 49.604,280.383 48.214,278.869 46.802 C 277.354 45.391,275.892 44.040,275.619 43.802 C 275.346 43.563,274.094 42.419,272.837 41.260 C 271.580 40.100,270.213 38.840,269.799 38.459 C 269.386 38.078,267.807 36.622,266.291 35.222 C 259.516 28.967,256.960 26.635,256.184 25.997 L 255.350 25.313 140.499 25.313 C 77.331 25.313,25.572 25.388,25.480 25.480 " stroke="none" fill="#f4f4f4" fill-rule="evenodd"></path></g></svg>